# xmcd
#
# Track frame offsets:
#	150
#	15257
#	30116
#	45611
#	61861
#	71086
#	87008
#	101024
#	117082
#	131404
#
# Disc length: 1940 seconds
#
# Revision: 0
# Processed by: cddbd v1.5.2PL0 Copyright (c) Steve Scherf et al.
# Submitted via: EasyCDDAExtractor 16.0.6.1
#
DISCID=6e07920a
DTITLE=Συλλογικός δίσκος - Λαϊκό τραγούδι 1954-1967, 1961-5
DYEAR=2008
DGENRE=Λαϊκή
TTITLE0=Αγγελόπουλος Μανώλης - Όταν κοιμάται ο δυστυχής [Βασίλης Καραπατάκης-Χ
TTITLE0=αρ. Βασιλειάδης]
TTITLE1=Αγγελόπουλος Μανώλης - Το κλάμα του τσιγγάνου [Γιώργος Λαύκας-Χαράλαμπ
TTITLE1=ος Βασιλειάδης]
TTITLE2=Καζαντζίδης Στέλιος-Χιώτης Μανώλης - Έξω ντέρτια και καϋμοί [Στέλιος Κ
TTITLE2=αζαντζίδης]
TTITLE3=Καζαντζίδης Στέλιος-Στάμου Ρένα - Είν' όλα μαύρα [Γιώργος Μητσάκης]
TTITLE4=Λίντα Μαίρη - Φέρε παιδί μου [Μανώλης Χιώτης]
TTITLE5=Μπιθικώτσης Γρηγόρης - Οι αρχαίοι [Γιώργος Μητσάκης]
TTITLE6=Γαβαλάς Πάνος-Κούρτη Ρία - Βάστα καρδιά μου [Πάνος Γαβαλάς]
TTITLE7=Αναγνωστάκης Πέτρος-Κούρτη Ρία - Θα βάλω μαγνητόφωνο [Πέτρος Αναγνωστά
TTITLE7=κης-Π. Λειβαδάρας]
TTITLE8=Περπινιάδης Βαγγέλης - Ο μπαγλαμάς μου και η παραπονιάρα [Βαγγ. Περπιν
TTITLE8=ιάδης-Δημ. Γκούτης]
TTITLE9=Διονυσίου Στράτος-Μάμος Γιώργος - Κορδελάκια και καψόνια [Ανέστης Αθαν
TTITLE9=ασίου-Δημήτρης Γκούτης]
EXTD=
EXTT0=
EXTT1=
EXTT2=
EXTT3=
EXTT4=
EXTT5=
EXTT6=
EXTT7=
EXTT8=
EXTT9=
PLAYORDER=
